<?xml version="1.0" encoding="utf-8"?>
<!-- Generator: Adobe Illustrator 24.2.0, SVG Export Plug-In . SVG Version: 6.00 Build 0)  -->
<svg version="1.1" id="Layer_1" xmlns="http://www.w3.org/2000/svg" xmlns:xlink="http://www.w3.org/1999/xlink" x="0px" y="0px"
	 viewBox="0 0 228.54 582.11" style="enable-background:new 0 0 228.54 582.11;" xml:space="preserve">
<style type="text/css">
	.st0{fill:#8D0034;}
	.st1{clip-path:url(#SVGID_2_);fill:#FEBC11;}
	.st2{clip-path:url(#SVGID_2_);}
	.st3{clip-path:url(#SVGID_2_);fill:none;stroke:#000000;stroke-width:8.0979;}
	.st4{clip-path:url(#SVGID_2_);fill:none;stroke:#000000;stroke-width:9.1776;stroke-linecap:round;stroke-linejoin:round;}
	.st5{fill:none;stroke:#000000;stroke-width:9.1776;stroke-linecap:round;stroke-linejoin:round;}
	.st6{clip-path:url(#SVGID_4_);fill:none;stroke:#000000;stroke-width:9.1776;stroke-linecap:round;stroke-linejoin:round;}
	
		.st7{clip-path:url(#SVGID_4_);fill:none;stroke:#000000;stroke-width:10.7972;stroke-linecap:round;stroke-linejoin:round;stroke-miterlimit:10;}
	.st8{clip-path:url(#SVGID_4_);fill:#FFFFFF;}
	
		.st9{clip-path:url(#SVGID_4_);fill:none;stroke:#FFFFFF;stroke-width:8.0601;stroke-linecap:round;stroke-linejoin:round;stroke-miterlimit:10;}
	.st10{clip-path:url(#SVGID_4_);fill:#EAF6F6;}
</style>
<polygon class="st0" points="119.93,208.33 44.65,208.33 20.1,272.43 25.28,292.94 36.94,298.34 132.17,294.46 145.78,284.09 
	144.48,272.43 "/>
<g>
	<defs>
		<rect id="SVGID_1_" y="3.58" width="228.54" height="575.75"/>
	</defs>
	<clipPath id="SVGID_2_">
		<use xlink:href="#SVGID_1_"  style="overflow:visible;"/>
	</clipPath>
	<path class="st1" d="M65.23,31.66c7.75,0,14.04-6.29,14.04-14.04c0-7.75-6.29-14.04-14.04-14.04c-7.75,0-14.04,6.29-14.04,14.04
		C51.19,25.37,57.48,31.66,65.23,31.66"/>
	<path class="st2" d="M71.75,17.62h-3.51c-0.01,1.66-1.35,3.01-3.01,3.01c-1.66,0-3.01-1.35-3.01-3.01
		c0.01-1.66,1.35-3.01,3.01-3.01c1.66,0,3,1.35,3.01,3.01H71.75h3.51c0-5.54-4.49-10.03-10.03-10.03
		C59.7,7.6,55.21,12.08,55.21,17.62c0,5.54,4.49,10.03,10.03,10.03c5.54-0.01,10.03-4.49,10.03-10.03H71.75z"/>
	<path class="st1" d="M103.95,70.98c9.31,0,16.85-7.54,16.85-16.85s-7.54-16.85-16.85-16.85S87.1,44.82,87.1,54.13
		S94.64,70.98,103.95,70.98"/>
	<path class="st1" d="M103.95,62.71c4.75,0,8.59-3.84,8.59-8.58c0-4.75-3.84-8.59-8.59-8.59c-4.75,0-8.59,3.84-8.59,8.59
		C95.36,58.87,99.2,62.71,103.95,62.71"/>
	<path class="st3" d="M103.95,62.71c4.75,0,8.59-3.84,8.59-8.58c0-4.75-3.84-8.59-8.59-8.59c-4.75,0-8.59,3.84-8.59,8.59
		C95.36,58.87,99.2,62.71,103.95,62.71z"/>
	<path class="st2" d="M87.1,76.45c0,5.61-4.55,10.17-10.17,10.17c-5.61,0-10.17-4.55-10.17-10.17c0-5.61,4.55-10.17,10.17-10.17
		C82.55,66.28,87.1,70.84,87.1,76.45"/>
	<path class="st1" d="M76.93,80.1c2.01,0,3.65-1.64,3.65-3.65c0-2.02-1.64-3.65-3.65-3.65c-2.01,0-3.65,1.63-3.65,3.65
		C73.28,78.46,74.91,80.1,76.93,80.1"/>
	<path class="st4" d="M104.84,127.77l2.42,26.18l3.41,28.34l32.83,90.12c2.11,5,1.57,10.69-1.44,15.21c-3,4.52-8.04,7.22-13.47,7.22
		H37.12c-5.38,0-10.39-2.67-13.4-7.12c-3.01-4.46-3.61-10.1-1.6-15.08l31.11-89.35c0.26-0.64,0.43-1.32,0.5-1.92l4.52-53.73"/>
</g>
<rect x="60.46" y="364.37" class="st5" width="50.05" height="19.54"/>
<rect x="46.63" y="383.91" class="st5" width="77.72" height="19.54"/>
<g>
	<defs>
		<rect id="SVGID_3_" y="3.58" width="228.54" height="575.75"/>
	</defs>
	<clipPath id="SVGID_4_">
		<use xlink:href="#SVGID_3_"  style="overflow:visible;"/>
	</clipPath>
	<path class="st6" d="M96.82,337.9c0,6.26-5.07,11.33-11.33,11.33s-11.33-5.07-11.33-11.33c0,0,0.55-14.8,11.33-21.93
		c0,0-0.73,6.58,3.1,10.79C92.43,330.95,96.82,332.6,96.82,337.9z"/>
	<path class="st7" d="M223.14,175.29H5.4 M199.96,573.93V175.29"/>
	<path class="st8" d="M59.81,107.84h46.1c5.47,0,9.91,4.44,9.91,9.91c0,5.47-4.44,9.91-9.91,9.91h-46.1c-5.47,0-9.91-4.44-9.91-9.91
		C49.9,112.28,54.34,107.84,59.81,107.84"/>
	<path class="st6" d="M59.81,107.84h46.1c5.47,0,9.91,4.44,9.91,9.91c0,5.47-4.44,9.91-9.91,9.91h-46.1c-5.47,0-9.91-4.44-9.91-9.91
		C49.9,112.28,54.34,107.84,59.81,107.84z"/>
	
		<ellipse transform="matrix(0.7497 -0.6618 0.6618 0.7497 -140.008 106.8775)" class="st9" cx="71.28" cy="238.52" rx="10.81" ry="10.81"/>
	<path class="st10" d="M100.75,269.84c4.47,0,8.1-3.63,8.1-8.1c0-4.47-3.63-8.1-8.1-8.1c-4.47,0-8.1,3.63-8.1,8.1
		C92.66,266.21,96.28,269.84,100.75,269.84"/>
</g>
</svg>
