<?xml version="1.0" encoding="utf-8"?>
<!-- Generator: Adobe Illustrator 24.2.0, SVG Export Plug-In . SVG Version: 6.00 Build 0)  -->
<svg version="1.1" id="Layer_1" xmlns="http://www.w3.org/2000/svg" xmlns:xlink="http://www.w3.org/1999/xlink" x="0px" y="0px"
	 viewBox="0 0 792 612" style="enable-background:new 0 0 792 612;" xml:space="preserve">
<style type="text/css">
	.st0{clip-path:url(#SVGID_2_);fill:#FEBC11;}
	.st1{clip-path:url(#SVGID_2_);fill:#FFFFFF;}
	.st2{clip-path:url(#SVGID_2_);fill:none;stroke:#000000;stroke-width:7.4665;stroke-miterlimit:10;}
	.st3{clip-path:url(#SVGID_2_);fill:#8D0034;}
	.st4{fill:#FFFFFF;}
	.st5{clip-path:url(#SVGID_4_);fill:none;stroke:#000000;stroke-width:10.3558;stroke-linejoin:round;stroke-miterlimit:10;}
	.st6{clip-path:url(#SVGID_4_);fill:#FFFFFF;}
	.st7{clip-path:url(#SVGID_4_);fill:none;stroke:#000000;stroke-width:10.3558;stroke-miterlimit:10;}
</style>
<g>
	<defs>
		<rect id="SVGID_1_" x="229.18" y="16.2" width="333.63" height="579.6"/>
	</defs>
	<clipPath id="SVGID_2_">
		<use xlink:href="#SVGID_1_"  style="overflow:visible;"/>
	</clipPath>
	<path class="st0" d="M543.6,81.16c-29.34,0-45.52,8.36-59.36,13.29c-29.96,10.65-37.07,13.17-60.92,13.18l-0.67,0.02
		c-1.86,0.08-3.7,0.11-5.52,0.11c-25.25,0-48.12-7.41-64.82-12.83l-2.11-0.68c-27.23-8.81-51.41-13.09-73.92-13.09
		c-0.01,0-0.01,0-0.02,0v204.08c0.01,0,0.01,0,0.02,0c17.86,0,37.65,3.6,60.55,11.01l2.15,0.69c18.33,5.94,46.04,18.58,78.02,18.58
		c2.3,0,4.62-0.06,6.95-0.15c30.87-0.04,43.78-8.29,74.82-19.33c15.1-5.37,25.43-10.8,44.84-10.8c10.29,0,17.16-7.06,17.16-15.73
		V96.89C560.76,88.22,553.89,81.16,543.6,81.16"/>
	<path class="st1" d="M490.97,207.92c0,39.06-32.9,70.73-73.48,70.73S344,246.98,344,207.92c0-39.06,32.9-70.73,73.48-70.73
		S490.97,168.85,490.97,207.92"/>
	<ellipse class="st2" cx="417.49" cy="207.92" rx="73.48" ry="70.73"/>
	<path class="st3" d="M477.51,186.79c12.1,31.97-4.97,67.34-38.12,79c-33.15,11.67-69.83-4.79-81.93-36.76
		c-12.1-31.97,4.97-67.34,38.12-79.01C428.74,138.37,465.42,154.83,477.51,186.79"/>
</g>
<polygon class="st4" points="396.16,238.51 402.16,236.4 386.41,194.78 380.41,196.88 375.93,185.03 408.86,173.44 413.35,185.29 
	404.99,188.24 420.75,229.86 438.99,223.44 433.33,208.46 448.86,202.99 459.05,229.92 400.68,250.46 "/>
<g>
	<defs>
		<rect id="SVGID_3_" x="229.18" y="16.2" width="333.63" height="579.6"/>
	</defs>
	<clipPath id="SVGID_4_">
		<use xlink:href="#SVGID_3_"  style="overflow:visible;"/>
	</clipPath>
	<path class="st5" d="M416.99,315.41c-28.32,0-53.92-9.47-70.86-15.74l-2.14-0.79c-24.83-9.18-46.63-13.66-66.64-13.73V81.43
		c19.92,0.06,41.63,4.54,66.33,13.66l2.1,0.78c18.02,6.66,42.69,15.79,71.34,15.79c2.14,0,4.29-0.05,6.47-0.16h0.02
		c27.24,0,37.44-4.13,67.58-16.36l0.03-0.01c0.04-0.02,0.07-0.03,0.11-0.05c12.41-5.05,40.26-13.58,66.32-13.66v203.74
		c-22.79,0.09-50.47,7.16-66.64,13.73c-30.15,12.24-40.3,16.36-67.43,16.36C421.17,315.36,419.07,315.41,416.99,315.41z"/>
	<path class="st6" d="M249.65,76.56c-0.71,0-1.29,0.58-1.29,1.29v511.47c0,0.71,0.58,1.29,1.29,1.29h26.41
		c0.71,0,1.29-0.58,1.29-1.29V77.85c0-0.71-0.58-1.29-1.29-1.29H249.65z"/>
	<path class="st7" d="M249.65,76.56c-0.71,0-1.29,0.58-1.29,1.29v511.47c0,0.71,0.58,1.29,1.29,1.29h26.41
		c0.71,0,1.29-0.58,1.29-1.29V77.85c0-0.71-0.58-1.29-1.29-1.29H249.65z"/>
	<path class="st6" d="M291.35,48.64c0,15.06-12.76,27.26-28.49,27.26s-28.49-12.2-28.49-27.26c0-15.06,12.75-27.26,28.49-27.26
		S291.35,33.59,291.35,48.64"/>
	<path class="st7" d="M291.35,48.64c0,15.06-12.76,27.26-28.49,27.26s-28.49-12.2-28.49-27.26c0-15.06,12.75-27.26,28.49-27.26
		S291.35,33.59,291.35,48.64z"/>
</g>
</svg>
